Coordinates
version=1
nRows=30
nColumns=34
inDegrees=no

Units are S.I. units (second, meters, Newtons, ...)
If the header above contains a line with 'inDegrees', this indicates whether rotational values are in degrees (yes) or radians (no).

endheader
time	pelvis_tilt	pelvis_list	pelvis_rotation	pelvis_tx	pelvis_ty	pelvis_tz	hip_flexion_r	hip_adduction_r	hip_rotation_r	knee_angle_r	ankle_angle_r	subtalar_angle_r	mtp_angle_r	hip_flexion_l	hip_adduction_l	hip_rotation_l	knee_angle_l	ankle_angle_l	subtalar_angle_l	mtp_angle_l	lumbar_extension	lumbar_bending	lumbar_rotation	arm_flex_r	arm_add_r	arm_rot_r	elbow_flex_r	pro_sup_r	arm_flex_l	arm_add_l	arm_rot_l	elbow_flex_l	pro_sup_l
0.42	-0.132757	-0.166983	0.0143799	0.315403	0.93214	-0.241305	0.0858993	0.214028	-0.0836024	0.0665096	0.239277	-0.0795307	-0.098944	0.624782	-0.153115	0.15773	1.09518	0.114134	-0.303464	-0.0976508	-0.104196	0.453479	-0.0206985	-0.0893275	-0.245599	-0.259899	0.885895	1.64996	-0.109187	-0.0933187	-0.058774	0.954453	1.73153
0.43	-0.128227	-0.159373	0.0163158	0.323442	0.932341	-0.240353	0.071029	0.207278	-0.0848814	0.0662497	0.249524	-0.0747689	-0.0989605	0.6333	-0.145087	0.150227	1.05532	0.122961	-0.303977	-0.0976481	-0.107087	0.437766	-0.0163656	-0.0859516	-0.244508	-0.250338	0.876811	1.65078	-0.109222	-0.0931122	-0.0645112	0.947769	1.73268
0.44	-0.12445	-0.151696	0.0174502	0.331489	0.932381	-0.239333	0.0572074	0.200488	-0.0864968	0.0665615	0.260317	-0.0691361	-0.0989769	0.64096	-0.137896	0.140686	1.01223	0.131787	-0.300667	-0.0976453	-0.109594	0.421807	-0.0117303	-0.0822529	-0.24341	-0.240423	0.867069	1.65139	-0.109386	-0.0934179	-0.0696351	0.94013	1.73501
0.45	-0.121361	-0.144157	0.0178936	0.339549	0.932257	-0.238248	0.0443302	0.193853	-0.0886493	0.0673721	0.27171	-0.062336	-0.0989933	0.647756	-0.131637	0.129478	0.966264	0.140716	-0.292573	-0.0976425	-0.111741	0.405826	-0.00684087	-0.0783075	-0.242286	-0.23029	0.856838	1.65183	-0.10964	-0.0941325	-0.0743312	0.931481	1.73857
0.46	-0.118883	-0.136924	0.0177744	0.347631	0.931967	-0.23711	0.0322909	0.187532	-0.0915436	0.0686316	0.283756	-0.0541449	-0.0990098	0.653648	-0.12633	0.117013	0.917744	0.149807	-0.278756	-0.0976398	-0.113552	0.390005	-0.00175644	-0.0742043	-0.241116	-0.220075	0.846264	1.65224	-0.109953	-0.0951524	-0.078751	0.92179	1.74328
0.47	-0.116922	-0.130103	0.0172247	0.355744	0.931514	-0.235928	0.0209732	0.181631	-0.0953454	0.0703098	0.296483	-0.044463	-0.0990262	0.658535	-0.121911	0.103713	0.866951	0.159063	-0.258456	-0.097637	-0.115055	0.374467	0.00345816	-0.0700303	-0.23988	-0.209897	0.835464	1.6528	-0.110305	-0.096381	-0.0830118	0.911042	1.74899
0.48	-0.115364	-0.123738	0.016366	0.363904	0.930907	-0.234714	0.0102512	0.17619	-0.100181	0.0724064	0.309899	-0.0332903	-0.0990427	0.66225	-0.118239	0.0899822	0.8141	0.168412	-0.23124	-0.0976342	-0.116296	0.359269	0.00874137	-0.0658593	-0.23856	-0.199847	0.824518	1.65366	-0.110686	-0.0977324	-0.0872037	0.899231	1.75551
0.49	-0.114075	-0.117807	0.0152971	0.372124	0.930159	-0.233481	2.90399e-07	0.17117	-0.106198	0.0749783	0.324031	-0.0206027	-0.0990591	0.664561	-0.115111	0.076192	0.759347	0.177706	-0.197118	-0.0976314	-0.117349	0.344402	0.0140439	-0.061744	-0.237141	-0.189991	0.813476	1.65494	-0.111086	-0.0991324	-0.0914053	0.88635	1.7627
0.5	-0.11291	-0.112238	0.014087	0.38042	0.929292	-0.232242	-0.00992662	0.166481	-0.113447	0.0780829	0.338839	-0.00649039	-0.0990756	0.665196	-0.112291	0.0626678	0.702821	0.186722	-0.156606	-0.0976286	-0.118313	0.329802	0.0193346	-0.0577157	-0.235614	-0.180376	0.802365	1.65668	-0.111497	-0.100519	-0.0956851	0.872401	1.77032
0.51	-0.111709	-0.106933	0.0127734	0.388811	0.928326	-0.231005	-0.0197101	0.161999	-0.121841	0.0817452	0.354179	0.00880657	-0.099092	0.663882	-0.109542	0.0496857	0.644679	0.195188	-0.110729	-0.0976258	-0.119316	0.315374	0.0246012	-0.0537879	-0.23397	-0.171044	0.791204	1.65878	-0.111911	-0.101842	-0.100109	0.857407	1.77801
0.52	-0.110311	-0.10178	0.0113664	0.397316	0.927286	-0.229778	-0.0295593	0.157578	-0.131187	0.0859558	0.369814	0.0249663	-0.0991085	0.660391	-0.106649	0.0374663	0.585177	0.202823	-0.0609425	-0.097623	-0.120502	0.301005	0.0298463	-0.049965	-0.232202	-0.16204	0.78001	1.66105	-0.112313	-0.103059	-0.104752	0.841413	1.78521
0.53	-0.108559	-0.0966626	0.00985584	0.405949	0.926196	-0.22857	-0.0396879	0.153048	-0.141314	0.0907057	0.38549	0.0417611	-0.0991249	0.654579	-0.103443	0.0261684	0.524737	0.209385	-0.00901513	-0.0976202	-0.122021	0.286574	0.0350784	-0.0462517	-0.230299	-0.153417	0.768815	1.66326	-0.112695	-0.104138	-0.109705	0.824487	1.79133
0.54	-0.106319	-0.0914613	0.00822089	0.414724	0.925079	-0.227386	-0.050263	0.148193	-0.152291	0.096068	0.401062	0.0593566	-0.0991414	0.646417	-0.0997954	0.0158849	0.463985	0.214717	0.0431251	-0.0976174	-0.124008	0.271953	0.0403029	-0.0426634	-0.228247	-0.145246	0.757661	1.66517	-0.113051	-0.105057	-0.115083	0.806708	1.79584
0.55	-0.103487	-0.086056	0.00644203	0.42365	0.923955	-0.226231	-0.0613896	0.142757	-0.16442	0.102188	0.416504	0.0782756	-0.0991578	0.636004	-0.0956093	0.00666142	0.403748	0.218764	0.093518	-0.0976147	-0.126565	0.257009	0.0455116	-0.0392355	-0.226022	-0.13761	0.746605	1.66664	-0.113385	-0.105809	-0.121006	0.788165	1.79836
0.56	-0.100017	-0.0803184	0.0045109	0.432734	0.922841	-0.22511	-0.0730674	0.136433	-0.178333	0.109326	0.431974	0.0995033	-0.0991743	0.623558	-0.0907962	-0.00147908	0.345003	0.221567	0.14028	-0.0976119	-0.12973	0.241597	0.050678	-0.0360289	-0.223592	-0.130605	0.735717	1.66759	-0.11371	-0.106408	-0.127583	0.768954	1.79875
0.57	-0.0959221	-0.0741213	0.00243697	0.441981	0.921747	-0.224032	-0.085198	0.128902	-0.194835	0.117796	0.447738	0.124235	-0.0991907	0.609403	-0.0852692	-0.00851695	0.28881	0.223245	0.181711	-0.0976091	-0.13346	0.225575	0.0557579	-0.0331354	-0.220918	-0.124337	0.725074	1.66804	-0.11405	-0.106886	-0.13489	0.749173	1.79708
0.58	-0.0912927	-0.0673718	0.000249588	0.451396	0.92068	-0.222999	-0.0976488	0.119939	-0.214458	0.127778	0.463945	0.153255	-0.0992072	0.593966	-0.0789719	-0.0144413	0.236268	0.223978	0.216433	-0.0976063	-0.137613	0.208837	0.0606987	-0.0306782	-0.217955	-0.118908	0.714753	1.66806	-0.114448	-0.107297	-0.142955	0.728933	1.79361
0.59	-0.0862964	-0.0600415	-0.00200607	0.460986	0.919637	-0.222012	-0.110295	0.109495	-0.237168	0.139199	0.480476	0.186525	-0.0992237	0.577777	-0.071912	-0.0192933	0.188463	0.223982	0.243539	-0.0976034	-0.141947	0.191347	0.0654518	-0.028808	-0.214659	-0.114406	0.704831	1.66773	-0.114961	-0.107705	-0.151752	0.708359	1.78876
0.6	-0.0811779	-0.0521836	-0.00427658	0.470765	0.918606	-0.221066	-0.123035	0.0977394	-0.262254	0.151694	0.496895	0.223034	-0.0992401	0.561454	-0.0641833	-0.0232177	0.146417	0.223472	0.262718	-0.0976006	-0.146122	0.173153	0.069985	-0.0276924	-0.210996	-0.110891	0.695373	1.66708	-0.115668	-0.108182	-0.161219	0.687589	1.78304
0.61	-0.0762448	-0.0439244	-0.00650815	0.480741	0.917568	-0.22015	-0.13578	0.0850304	-0.288442	0.164663	0.512512	0.260967	-0.0992566	0.545667	-0.0559553	-0.0264795	0.110992	0.22258	0.274288	-0.0975978	-0.149732	0.154376	0.074289	-0.027499	-0.206943	-0.10837	0.686426	1.66615	-0.116664	-0.108793	-0.17127	0.666768	1.77705
0.62	-0.071837	-0.0354103	-0.00865188	0.490928	0.9165	-0.219252	-0.148412	0.071797	-0.314317	0.177459	0.5266	0.298283	-0.099273	0.531047	-0.0474115	-0.0293979	0.0827525	0.221242	0.279061	-0.097595	-0.152341	0.135154	0.0783739	-0.0283728	-0.202495	-0.106793	0.678006	1.66494	-0.118056	-0.109599	-0.18181	0.646058	1.77127
0.63	-0.0682817	-0.0267557	-0.0106634	0.501335	0.915376	-0.218366	-0.160788	0.0584411	-0.338572	0.189486	0.538504	0.333065	-0.0992895	0.518093	-0.0386888	-0.03224	0.0618332	0.219104	0.278142	-0.0975922	-0.153541	0.115596	0.082258	-0.0304144	-0.197658	-0.10604	0.670093	1.66348	-0.119947	-0.110651	-0.192739	0.625628	1.766
0.64	-0.0658528	-0.0179968	-0.0124995	0.511975	0.914173	-0.217485	-0.172765	0.0452486	-0.360186	0.200277	0.54772	0.363772	-0.0993059	0.507094	-0.0298211	-0.0351122	0.0478583	0.215484	0.272695	-0.0975894	-0.153	0.095731	0.08595	-0.0336611	-0.192446	-0.105922	0.662623	1.6618	-0.122433	-0.111997	-0.203971	0.60565	1.76128
0.65	-0.0647318	-0.00900056	-0.0141125	0.522849	0.912906	-0.216617	-0.184201	0.0322543	-0.378754	0.209636	0.554026	0.389695	-0.0993224	0.49806	-0.0206746	-0.0378482	0.0399047	0.209383	0.263654	-0.0975866	-0.150516	0.0754508	0.0894297	-0.0380754	-0.186875	-0.106192	0.655493	1.65996	-0.125587	-0.113686	-0.215448	0.586278	1.75704
0.66	-0.0649799	0.000507381	-0.0154477	0.533959	0.911587	-0.215769	-0.194969	0.0191817	-0.394591	0.217671	0.557501	0.411083	-0.0993389	0.490729	-0.0109227	-0.0400334	0.0366069	0.19964	0.251619	-0.0975838	-0.146044	0.0544688	0.0926326	-0.0435429	-0.180949	-0.106566	0.648574	1.65794	-0.129453	-0.115776	-0.227146	0.567641	1.75314
0.67	-0.0665286	0.0109369	-0.0164341	0.5453	0.910238	-0.214956	-0.204983	0.00549119	-0.408604	0.224754	0.558466	0.428987	-0.0993553	0.484654	-9.05456e-05	-0.0411465	0.0363859	0.185194	0.236917	-0.097581	-0.139704	0.0323503	0.0954455	-0.0498784	-0.174655	-0.106754	0.641725	1.65573	-0.134033	-0.118333	-0.239069	0.549844	1.74943
0.68	-0.0691972	0.0227509	-0.0169763	0.556857	0.908895	-0.21419	-0.214221	-0.00949152	-0.422005	0.2314	0.557355	0.444864	-0.0993718	0.479332	0.0123557	-0.0407579	0.0377488	0.1654	0.219777	-0.0975782	-0.131773	0.00857914	0.097713	-0.0568421	-0.16796	-0.106508	0.634809	1.65327	-0.139285	-0.121437	-0.251239	0.532976	1.74577
0.69	-0.0727535	0.0363528	-0.0169544	0.568607	0.907598	-0.213484	-0.222746	-0.0263825	-0.435905	0.238106	0.554552	0.460045	-0.0993883	0.474342	0.0268907	-0.0387307	0.0395938	0.14031	0.200563	-0.0975754	-0.122663	-0.0173389	0.0992483	-0.0641639	-0.160815	-0.105647	0.627718	1.65051	-0.145113	-0.125171	-0.263678	0.517118	1.74207
0.7	-0.0769381	0.0519921	-0.0162205	0.580511	0.906389	-0.212841	-0.230724	-0.0455101	-0.450851	0.245169	0.55022	0.475111	-0.0994048	0.46947	0.0437913	-0.0353838	0.0414477	0.11087	0.180033	-0.0975725	-0.112889	-0.0457379	0.0998544	-0.07157	-0.153165	-0.10409	0.620385	1.64748	-0.151375	-0.129607	-0.276394	0.502356	1.73832
0.71	-0.0814872	0.0697067	-0.0146085	0.592522	0.905312	-0.21226	-0.238391	-0.0668242	-0.46669	0.252646	0.544261	0.489714	-0.0994212	0.464735	0.0630739	-0.0314409	0.0434993	0.0788721	0.159317	-0.0975697	-0.103014	-0.0767143	0.0993472	-0.0788116	-0.144967	-0.10185	0.612807	1.64429	-0.157888	-0.134799	-0.289381	0.488783	1.73456
